<svg width="315" height="454" viewBox="0 0 315 454" fill="none" xmlns="http://www.w3.org/2000/svg">
<rect width="314.814" height="454" rx="10" fill="#F9F9F9"/>
<path d="M49.6151 122.389L43.029 115.276C55.0596 109.041 63.9288 100.523 69.2855 90.776C64.807 91.1273 60.065 91.2151 55.6743 91.2151H45.5756V82.5215H55.4108C61.031 82.5215 67.4414 82.258 73.1493 81.7312C74.3787 77.7795 74.9934 73.6522 75.1691 69.4372H47.8588V60.6557H85.5312C86.5849 91.3029 70.3393 110.973 49.6151 122.389ZM106.694 132.663H96.6836V54.0696H106.694V84.19H117.935V93.4983H106.694V132.663ZM127.204 122.389L120.618 115.276C132.648 109.041 141.518 100.523 146.874 90.776C142.396 91.1273 137.654 91.2151 133.263 91.2151H123.164V82.5215H133C138.62 82.5215 145.03 82.258 150.738 81.7312C151.967 77.7795 152.582 73.6522 152.758 69.4372H125.448V60.6557H163.12C164.174 91.3029 147.928 110.973 127.204 122.389ZM184.283 132.663H174.272V54.0696H184.283V84.19H195.523V93.4983H184.283V132.663ZM271.883 125.726H197.767V116.769H229.556V102.104C215.418 101.05 205.671 92.1811 205.671 79.2724C205.671 66.2758 215.594 57.4066 229.82 56.4406C232.805 56.265 236.845 56.265 239.831 56.4406C254.056 57.4066 263.979 66.2758 263.979 79.2724C263.979 92.1811 254.144 101.05 240.094 102.104V116.769H271.883V125.726ZM239.831 93.147C248.7 92.4445 253.617 86.2097 253.617 79.2724C253.617 72.335 248.7 66.1002 239.831 65.3977C238.338 65.2221 236.581 65.2221 234.825 65.2221C233.069 65.2221 231.313 65.2221 229.82 65.3977C220.95 66.1002 216.033 72.335 216.033 79.2724C216.033 86.2097 220.95 92.4445 229.82 93.147C231.313 93.2348 233.069 93.3227 234.825 93.3227C236.581 93.3227 238.338 93.2348 239.831 93.147Z" fill="black"/>
<path d="M81.1181 353.977H44.6866V347.13H81.1181V353.977ZM92.0993 393.057H83.8311V334.986H92.0993V359.403H100.238V366.508H92.0993V393.057ZM79.6325 370.772C79.6325 378.911 73.2376 385.629 63.5483 385.629C53.8591 385.629 47.4642 378.911 47.4642 370.772C47.4642 362.633 53.8591 355.915 63.5483 355.915C73.2376 355.915 79.6325 362.633 79.6325 370.772ZM63.5483 378.911C68.393 378.911 71.3643 375.487 71.3643 370.772C71.3643 366.056 68.393 362.633 63.5483 362.633C58.7037 362.633 55.7324 366.056 55.7324 370.772C55.7324 375.487 58.7037 378.911 63.5483 378.911ZM74.6587 344.159H52.438V337.312H74.6587V344.159ZM150.658 364.829H108.348V347.13H141.098V343.319H108.348V336.601H149.366V353.719H116.617V358.047H150.658V364.829ZM156.73 376.004H133.282V393.057H124.755V376.004H101.308V369.157H156.73V376.004ZM196.169 361.793L191.97 367.865C185.898 365.281 180.084 360.889 177.049 355.915C174.659 360.953 168.716 366.121 161.417 369.609L156.507 363.989C166.067 359.791 172.591 352.039 172.591 342.996V335.955H181.118V342.996C181.118 351.458 187.771 358.434 196.169 361.793ZM209.023 376.844H200.755V352.362H189.063V345.515H200.755V334.986H209.023V376.844ZM210.315 392.088H169.039V371.676H177.436V385.37H210.315V392.088ZM265.256 392.411H222.365V377.296H255.696V374.647H222.365V368.317H238.837V364.441H215.454V357.982H270.876V364.441H247.493V368.317H263.964V383.239H230.633V386.016H265.256V392.411ZM263.964 354.752H222.365V336.536H263.964V354.752ZM255.696 348.293V342.996H230.633V348.293H255.696Z" fill="black"/>
<path d="M116.17 106.255H243.769C246.194 106.255 248.159 108.221 248.159 110.646V350.379L64.1884 298.396V180.611L116.17 106.255Z" fill="#FFC332"/>
<path d="M64.1697 298.522L106.218 240.47C107.925 238.114 111.323 237.43 113.809 238.943L259.026 327.325C261.512 328.838 262.143 331.975 260.436 334.331L248.614 350.653L64.1697 298.522Z" fill="#FFEA2C"/>
<path d="M136.297 147.757L116.166 106.238L64.1961 180.661L134.087 153.408C136.374 152.516 137.37 149.97 136.297 147.757Z" fill="#FFEA2C"/>
</svg>
